<svg xmlns="http://www.w3.org/2000/svg" xmlns:xlink="http://www.w3.org/1999/xlink" width="1080" zoomAndPan="magnify" viewBox="0 0 810 1012.49997" height="1350" preserveAspectRatio="xMidYMid meet" version="1.0"><defs><g/><clipPath id="79c73514b1"><path d="M 6 0 L 809.800781 0 L 809.800781 1012 L 6 1012 Z M 6 0 " clip-rule="nonzero"/></clipPath><clipPath id="da60173fc8"><path d="M 128 0 L 803.800781 0 L 803.800781 1012 L 128 1012 Z M 128 0 " clip-rule="nonzero"/></clipPath><clipPath id="6e978b9498"><rect x="0" width="676" y="0" height="1012"/></clipPath><clipPath id="2099ef8786"><path d="M 0.4375 0 L 676 0 L 676 1012 L 0.4375 1012 Z M 0.4375 0 " clip-rule="nonzero"/></clipPath><clipPath id="951171109a"><rect x="0" width="676" y="0" height="1012"/></clipPath><clipPath id="f4030504a3"><rect x="0" width="453" y="0" height="101"/></clipPath><clipPath id="a937c9790d"><rect x="0" width="804" y="0" height="1012"/></clipPath></defs><g clip-path="url(#79c73514b1)"><g transform="matrix(1, 0, 0, 1, 6, 0)"><g clip-path="url(#a937c9790d)"><g clip-path="url(#da60173fc8)"><g transform="matrix(1, 0, 0, 1, 128, 0)"><g clip-path="url(#6e978b9498)"><g fill="#ffffff" fill-opacity="1"><g transform="translate(1.137971, 845.223768)"><g><path d="M 392.53125 13.5 C 327.707031 13.5 269.035156 0.296875 216.515625 -26.109375 C 164.003906 -52.515625 122.289062 -91.078125 91.375 -141.796875 C 60.46875 -192.515625 45.015625 -254.1875 45.015625 -326.8125 C 45.015625 -377.832031 54.164062 -423.148438 72.46875 -462.765625 C 90.78125 -502.378906 115.988281 -535.6875 148.09375 -562.6875 C 180.207031 -589.695312 217.722656 -610.101562 260.640625 -623.90625 C 303.554688 -637.71875 349.625 -644.625 398.84375 -644.625 C 432.445312 -644.625 466.957031 -641.472656 502.375 -635.171875 C 537.789062 -628.867188 573.203125 -618.816406 608.609375 -605.015625 L 604.109375 -541.984375 C 563.890625 -571.992188 524.273438 -594.203125 485.265625 -608.609375 C 446.253906 -623.015625 409.34375 -630.21875 374.53125 -630.21875 C 328.914062 -630.21875 287.953125 -618.660156 251.640625 -595.546875 C 215.328125 -572.441406 186.816406 -538.378906 166.109375 -493.359375 C 145.398438 -448.347656 135.046875 -392.832031 135.046875 -326.8125 C 135.046875 -257.789062 147.347656 -198.96875 171.953125 -150.34375 C 196.566406 -101.726562 229.578125 -64.515625 270.984375 -38.703125 C 312.398438 -12.898438 358.019531 0 407.84375 0 C 448.65625 0 489.46875 -10.203125 530.28125 -30.609375 L 530.28125 -330.421875 L 620.3125 -330.421875 L 620.3125 -36.90625 C 541.082031 -3.300781 465.15625 13.5 392.53125 13.5 Z M 392.53125 13.5 "/></g></g></g></g></g></g><g clip-path="url(#2099ef8786)"><g><g clip-path="url(#951171109a)"><g fill="#ffffff" fill-opacity="1"><g transform="translate(0.750371, 845.223768)"><g><path d="M 392.53125 13.5 C 327.707031 13.5 269.035156 0.296875 216.515625 -26.109375 C 164.003906 -52.515625 122.289062 -91.078125 91.375 -141.796875 C 60.46875 -192.515625 45.015625 -254.1875 45.015625 -326.8125 C 45.015625 -377.832031 54.164062 -423.148438 72.46875 -462.765625 C 90.78125 -502.378906 115.988281 -535.6875 148.09375 -562.6875 C 180.207031 -589.695312 217.722656 -610.101562 260.640625 -623.90625 C 303.554688 -637.71875 349.625 -644.625 398.84375 -644.625 C 432.445312 -644.625 466.957031 -641.472656 502.375 -635.171875 C 537.789062 -628.867188 573.203125 -618.816406 608.609375 -605.015625 L 604.109375 -541.984375 C 563.890625 -571.992188 524.273438 -594.203125 485.265625 -608.609375 C 446.253906 -623.015625 409.34375 -630.21875 374.53125 -630.21875 C 328.914062 -630.21875 287.953125 -618.660156 251.640625 -595.546875 C 215.328125 -572.441406 186.816406 -538.378906 166.109375 -493.359375 C 145.398438 -448.347656 135.046875 -392.832031 135.046875 -326.8125 C 135.046875 -257.789062 147.347656 -198.96875 171.953125 -150.34375 C 196.566406 -101.726562 229.578125 -64.515625 270.984375 -38.703125 C 312.398438 -12.898438 358.019531 0 407.84375 0 C 448.65625 0 489.46875 -10.203125 530.28125 -30.609375 L 530.28125 -330.421875 L 620.3125 -330.421875 L 620.3125 -36.90625 C 541.082031 -3.300781 465.15625 13.5 392.53125 13.5 Z M 392.53125 13.5 "/></g></g></g></g></g></g><g transform="matrix(1, 0, 0, 1, 291, 364)"><g clip-path="url(#f4030504a3)"><g fill="#ffffff" fill-opacity="1"><g transform="translate(0.983648, 73.030483)"><g><path d="M 28.625 0.984375 C 23.894531 0.984375 19.613281 0.0195312 15.78125 -1.90625 C 11.957031 -3.832031 8.914062 -6.644531 6.65625 -10.34375 C 4.40625 -14.039062 3.28125 -18.535156 3.28125 -23.828125 C 3.28125 -27.546875 3.945312 -30.847656 5.28125 -33.734375 C 6.613281 -36.628906 8.453125 -39.0625 10.796875 -41.03125 C 13.140625 -43 15.875 -44.484375 19 -45.484375 C 22.132812 -46.492188 25.492188 -47 29.078125 -47 C 31.523438 -47 34.039062 -46.769531 36.625 -46.3125 C 39.207031 -45.851562 41.789062 -45.117188 44.375 -44.109375 L 44.046875 -39.515625 C 41.109375 -41.703125 38.21875 -43.320312 35.375 -44.375 C 32.53125 -45.425781 29.84375 -45.953125 27.3125 -45.953125 C 23.976562 -45.953125 20.988281 -45.109375 18.34375 -43.421875 C 15.695312 -41.734375 13.617188 -39.25 12.109375 -35.96875 C 10.597656 -32.6875 9.84375 -28.640625 9.84375 -23.828125 C 9.84375 -18.796875 10.738281 -14.503906 12.53125 -10.953125 C 14.332031 -7.410156 16.738281 -4.695312 19.75 -2.8125 C 22.769531 -0.9375 26.097656 0 29.734375 0 C 32.710938 0 35.6875 -0.742188 38.65625 -2.234375 L 38.65625 -24.09375 L 45.21875 -24.09375 L 45.21875 -2.6875 C 39.445312 -0.238281 33.914062 0.984375 28.625 0.984375 Z M 28.625 0.984375 "/></g></g></g><g fill="#ffffff" fill-opacity="1"><g transform="translate(50.144851, 73.030483)"><g><path d="M 22.578125 0.921875 C 19.816406 0.921875 17.210938 0.441406 14.765625 -0.515625 C 12.316406 -1.484375 10.148438 -2.882812 8.265625 -4.71875 C 6.390625 -6.5625 4.914062 -8.75 3.84375 -11.28125 C 2.769531 -13.820312 2.234375 -16.671875 2.234375 -19.828125 C 2.234375 -23.015625 2.789062 -25.800781 3.90625 -28.1875 C 5.019531 -30.570312 6.515625 -32.570312 8.390625 -34.1875 C 10.273438 -35.8125 12.363281 -37.03125 14.65625 -37.84375 C 16.957031 -38.65625 19.289062 -39.0625 21.65625 -39.0625 C 24.5 -39.0625 27.179688 -38.476562 29.703125 -37.3125 C 32.222656 -36.15625 34.269531 -34.40625 35.84375 -32.0625 C 37.414062 -29.71875 38.203125 -26.773438 38.203125 -23.234375 C 38.203125 -21.835938 38.003906 -20.304688 37.609375 -18.640625 L 8.796875 -18.640625 C 8.878906 -14.785156 9.507812 -11.457031 10.6875 -8.65625 C 11.875 -5.863281 13.453125 -3.710938 15.421875 -2.203125 C 17.390625 -0.691406 19.578125 0.0625 21.984375 0.0625 C 24.265625 0.0625 26.660156 -0.710938 29.171875 -2.265625 C 31.691406 -3.816406 34.222656 -6.191406 36.765625 -9.390625 L 38.140625 -4.796875 C 35.640625 -2.828125 33.066406 -1.378906 30.421875 -0.453125 C 27.773438 0.460938 25.160156 0.921875 22.578125 0.921875 Z M 8.796875 -19.5625 L 31.90625 -19.5625 C 32.164062 -21.007812 32.296875 -22.390625 32.296875 -23.703125 C 32.296875 -26.929688 31.800781 -29.617188 30.8125 -31.765625 C 29.832031 -33.910156 28.53125 -35.507812 26.90625 -36.5625 C 25.289062 -37.613281 23.566406 -38.140625 21.734375 -38.140625 C 19.671875 -38.140625 17.65625 -37.4375 15.6875 -36.03125 C 13.71875 -34.632812 12.085938 -32.566406 10.796875 -29.828125 C 9.503906 -27.097656 8.835938 -23.675781 8.796875 -19.5625 Z M 8.796875 -19.5625 "/></g></g></g><g fill="#ffffff" fill-opacity="1"><g transform="translate(91.167234, 73.030483)"><g><path d="M 28.625 -39.0625 C 30.15625 -39.0625 31.578125 -38.734375 32.890625 -38.078125 C 34.203125 -37.421875 35.269531 -36.378906 36.09375 -34.953125 C 36.925781 -33.535156 37.34375 -31.707031 37.34375 -29.46875 L 37.34375 0 L 30.78125 0 L 30.78125 -29.671875 C 30.78125 -32.210938 30.296875 -34.050781 29.328125 -35.1875 C 28.367188 -36.320312 27.148438 -36.890625 25.671875 -36.890625 C 24.085938 -36.890625 22.351562 -36.351562 20.46875 -35.28125 C 18.59375 -34.207031 16.722656 -32.675781 14.859375 -30.6875 C 13.003906 -28.695312 11.351562 -26.320312 9.90625 -23.5625 L 9.90625 0 L 3.34375 0 L 3.34375 -37.9375 L 9.90625 -37.9375 L 9.90625 -25.203125 C 12.664062 -29.972656 15.738281 -33.472656 19.125 -35.703125 C 22.519531 -37.941406 25.6875 -39.0625 28.625 -39.0625 Z M 28.625 -39.0625 "/></g></g></g><g fill="#ffffff" fill-opacity="1"><g transform="translate(132.714686, 73.030483)"><g><path d="M 15.09375 1.046875 C 13.082031 1.046875 11.191406 0.632812 9.421875 -0.1875 C 7.648438 -1.019531 6.226562 -2.28125 5.15625 -3.96875 C 4.082031 -5.65625 3.546875 -7.789062 3.546875 -10.375 L 3.546875 -37.9375 L 10.109375 -37.9375 L 10.109375 -8.34375 C 10.109375 -5.625 10.765625 -3.609375 12.078125 -2.296875 C 13.390625 -0.984375 14.921875 -0.328125 16.671875 -0.328125 C 18.734375 -0.328125 20.679688 -1.101562 22.515625 -2.65625 C 24.347656 -4.207031 25.898438 -6.363281 27.171875 -9.125 C 28.441406 -11.882812 29.253906 -15.035156 29.609375 -18.578125 L 29.609375 -37.9375 L 36.171875 -37.9375 L 36.171875 0 L 29.609375 0 L 29.609375 -13.515625 L 29.40625 -13.515625 C 28.175781 -8.878906 26.300781 -5.289062 23.78125 -2.75 C 21.269531 -0.21875 18.375 1.046875 15.09375 1.046875 Z M 15.09375 1.046875 "/></g></g></g><g fill="#ffffff" fill-opacity="1"><g transform="translate(173.080705, 73.030483)"><g><path d="M 20.9375 -55.65625 L 5.96875 -42.921875 L 5.125 -42.921875 L 14.375 -55.65625 Z M 13.515625 0 L 6.953125 0 L 6.953125 -37.9375 L 13.515625 -37.9375 Z M 13.515625 0 "/></g></g></g><g fill="#ffffff" fill-opacity="1"><g transform="translate(191.0649, 73.030483)"><g><path d="M 28.625 -39.0625 C 30.15625 -39.0625 31.578125 -38.734375 32.890625 -38.078125 C 34.203125 -37.421875 35.269531 -36.378906 36.09375 -34.953125 C 36.925781 -33.535156 37.34375 -31.707031 37.34375 -29.46875 L 37.34375 0 L 30.78125 0 L 30.78125 -29.671875 C 30.78125 -32.210938 30.296875 -34.050781 29.328125 -35.1875 C 28.367188 -36.320312 27.148438 -36.890625 25.671875 -36.890625 C 24.085938 -36.890625 22.351562 -36.351562 20.46875 -35.28125 C 18.59375 -34.207031 16.722656 -32.675781 14.859375 -30.6875 C 13.003906 -28.695312 11.351562 -26.320312 9.90625 -23.5625 L 9.90625 0 L 3.34375 0 L 3.34375 -37.9375 L 9.90625 -37.9375 L 9.90625 -25.203125 C 12.664062 -29.972656 15.738281 -33.472656 19.125 -35.703125 C 22.519531 -37.941406 25.6875 -39.0625 28.625 -39.0625 Z M 28.625 -39.0625 "/></g></g></g><g fill="#ffffff" fill-opacity="1"><g transform="translate(232.612363, 73.030483)"><g><path d="M 20.609375 1.109375 C 16.753906 1.109375 13.457031 0.28125 10.71875 -1.375 C 7.988281 -3.039062 5.890625 -5.367188 4.421875 -8.359375 C 2.960938 -11.359375 2.234375 -14.851562 2.234375 -18.84375 C 2.234375 -22.90625 2.960938 -26.445312 4.421875 -29.46875 C 5.890625 -32.488281 7.988281 -34.84375 10.71875 -36.53125 C 13.457031 -38.21875 16.753906 -39.0625 20.609375 -39.0625 C 24.328125 -39.0625 27.550781 -38.21875 30.28125 -36.53125 C 33.019531 -34.84375 35.132812 -32.488281 36.625 -29.46875 C 38.113281 -26.445312 38.859375 -22.90625 38.859375 -18.84375 C 38.859375 -14.851562 38.113281 -11.359375 36.625 -8.359375 C 35.132812 -5.367188 33.019531 -3.039062 30.28125 -1.375 C 27.550781 0.28125 24.328125 1.109375 20.609375 1.109375 Z M 20.609375 0.203125 C 23.191406 0.203125 25.367188 -0.691406 27.140625 -2.484375 C 28.910156 -4.285156 30.265625 -6.640625 31.203125 -9.546875 C 32.148438 -12.460938 32.625 -15.5625 32.625 -18.84375 C 32.625 -21.25 32.359375 -23.597656 31.828125 -25.890625 C 31.304688 -28.191406 30.53125 -30.257812 29.5 -32.09375 C 28.476562 -33.9375 27.222656 -35.40625 25.734375 -36.5 C 24.242188 -37.59375 22.535156 -38.140625 20.609375 -38.140625 C 18.554688 -38.140625 16.773438 -37.59375 15.265625 -36.5 C 13.753906 -35.40625 12.492188 -33.9375 11.484375 -32.09375 C 10.484375 -30.257812 9.738281 -28.191406 9.25 -25.890625 C 8.769531 -23.597656 8.53125 -21.25 8.53125 -18.84375 C 8.53125 -15.5625 8.96875 -12.460938 9.84375 -9.546875 C 10.71875 -6.640625 12.039062 -4.285156 13.8125 -2.484375 C 15.582031 -0.691406 17.847656 0.203125 20.609375 0.203125 Z M 20.609375 0.203125 "/></g></g></g><g fill="#ffffff" fill-opacity="1"><g transform="translate(273.766007, 73.030483)"><g/></g></g><g fill="#ffffff" fill-opacity="1"><g transform="translate(288.862231, 73.030483)"><g><path d="M 28.625 0.984375 C 23.894531 0.984375 19.613281 0.0195312 15.78125 -1.90625 C 11.957031 -3.832031 8.914062 -6.644531 6.65625 -10.34375 C 4.40625 -14.039062 3.28125 -18.535156 3.28125 -23.828125 C 3.28125 -27.546875 3.945312 -30.847656 5.28125 -33.734375 C 6.613281 -36.628906 8.453125 -39.0625 10.796875 -41.03125 C 13.140625 -43 15.875 -44.484375 19 -45.484375 C 22.132812 -46.492188 25.492188 -47 29.078125 -47 C 31.523438 -47 34.039062 -46.769531 36.625 -46.3125 C 39.207031 -45.851562 41.789062 -45.117188 44.375 -44.109375 L 44.046875 -39.515625 C 41.109375 -41.703125 38.21875 -43.320312 35.375 -44.375 C 32.53125 -45.425781 29.84375 -45.953125 27.3125 -45.953125 C 23.976562 -45.953125 20.988281 -45.109375 18.34375 -43.421875 C 15.695312 -41.734375 13.617188 -39.25 12.109375 -35.96875 C 10.597656 -32.6875 9.84375 -28.640625 9.84375 -23.828125 C 9.84375 -18.796875 10.738281 -14.503906 12.53125 -10.953125 C 14.332031 -7.410156 16.738281 -4.695312 19.75 -2.8125 C 22.769531 -0.9375 26.097656 0 29.734375 0 C 32.710938 0 35.6875 -0.742188 38.65625 -2.234375 L 38.65625 -24.09375 L 45.21875 -24.09375 L 45.21875 -2.6875 C 39.445312 -0.238281 33.914062 0.984375 28.625 0.984375 Z M 28.625 0.984375 "/></g></g></g><g fill="#ffffff" fill-opacity="1"><g transform="translate(338.023439, 73.030483)"><g><path d="M 9.90625 0 L 3.34375 0 L 3.34375 -37.9375 L 9.90625 -37.9375 L 9.90625 -18.96875 L 9.984375 -18.96875 C 11.160156 -23.65625 12.734375 -27.59375 14.703125 -30.78125 C 16.671875 -33.976562 18.945312 -36.222656 21.53125 -37.515625 C 24.113281 -38.804688 26.914062 -38.945312 29.9375 -37.9375 L 29.015625 -33.34375 C 26.035156 -34.789062 23.304688 -35.007812 20.828125 -34 C 18.359375 -32.988281 16.207031 -30.960938 14.375 -27.921875 C 12.539062 -24.890625 11.050781 -21.03125 9.90625 -16.34375 Z M 9.90625 0 "/></g></g></g><g fill="#ffffff" fill-opacity="1"><g transform="translate(370.644437, 73.030483)"><g><path d="M 15.234375 0.984375 C 11.378906 0.984375 8.347656 -0.0859375 6.140625 -2.234375 C 3.929688 -4.378906 2.828125 -7.15625 2.828125 -10.5625 C 2.828125 -13.40625 3.554688 -15.898438 5.015625 -18.046875 C 6.484375 -20.191406 8.453125 -22.039062 10.921875 -23.59375 C 13.398438 -25.144531 16.210938 -26.457031 19.359375 -27.53125 C 22.515625 -28.601562 25.753906 -29.535156 29.078125 -30.328125 C 29.078125 -33.035156 28.421875 -35.046875 27.109375 -36.359375 C 25.796875 -37.671875 24.085938 -38.328125 21.984375 -38.328125 C 19.578125 -38.328125 17.09375 -37.613281 14.53125 -36.1875 C 11.976562 -34.769531 9.671875 -32.878906 7.609375 -30.515625 L 6.296875 -35.578125 C 8.617188 -36.671875 11.144531 -37.535156 13.875 -38.171875 C 16.613281 -38.804688 19.253906 -39.125 21.796875 -39.125 C 24.328125 -39.125 26.644531 -38.75 28.75 -38 C 30.851562 -37.257812 32.523438 -36.035156 33.765625 -34.328125 C 35.015625 -32.617188 35.640625 -30.320312 35.640625 -27.4375 L 35.640625 0 L 29.078125 0 L 29.078125 -5.84375 C 27.191406 -3.832031 25.023438 -2.191406 22.578125 -0.921875 C 20.128906 0.347656 17.679688 0.984375 15.234375 0.984375 Z M 17.78125 -1.109375 C 19.707031 -1.109375 21.707031 -1.65625 23.78125 -2.75 C 25.863281 -3.84375 27.628906 -5.179688 29.078125 -6.765625 L 29.078125 -29.40625 C 24.179688 -28.351562 20.285156 -26.960938 17.390625 -25.234375 C 14.503906 -23.503906 12.445312 -21.488281 11.21875 -19.1875 C 10 -16.894531 9.390625 -14.347656 9.390625 -11.546875 C 9.390625 -8.046875 10.207031 -5.429688 11.84375 -3.703125 C 13.488281 -1.972656 15.46875 -1.109375 17.78125 -1.109375 Z M 17.78125 -1.109375 "/></g></g></g><g fill="#ffffff" fill-opacity="1"><g transform="translate(410.419719, 73.030483)"><g><path d="M 28.625 -39.0625 C 30.15625 -39.0625 31.578125 -38.734375 32.890625 -38.078125 C 34.203125 -37.421875 35.269531 -36.378906 36.09375 -34.953125 C 36.925781 -33.535156 37.34375 -31.707031 37.34375 -29.46875 L 37.34375 0 L 30.78125 0 L 30.78125 -29.671875 C 30.78125 -32.210938 30.296875 -34.050781 29.328125 -35.1875 C 28.367188 -36.320312 27.148438 -36.890625 25.671875 -36.890625 C 24.085938 -36.890625 22.351562 -36.351562 20.46875 -35.28125 C 18.59375 -34.207031 16.722656 -32.675781 14.859375 -30.6875 C 13.003906 -28.695312 11.351562 -26.320312 9.90625 -23.5625 L 9.90625 0 L 3.34375 0 L 3.34375 -37.9375 L 9.90625 -37.9375 L 9.90625 -25.203125 C 12.664062 -29.972656 15.738281 -33.472656 19.125 -35.703125 C 22.519531 -37.941406 25.6875 -39.0625 28.625 -39.0625 Z M 28.625 -39.0625 "/></g></g></g></g></g></g></g></g></svg>