<svg xmlns="http://www.w3.org/2000/svg" xmlns:xlink="http://www.w3.org/1999/xlink" width="1080" zoomAndPan="magnify" viewBox="0 0 810 1012.49997" height="1350" preserveAspectRatio="xMidYMid meet" version="1.0"><defs><g/><clipPath id="17f642efd0"><path d="M 129 0 L 807.121094 0 L 807.121094 1012 L 129 1012 Z M 129 0 " clip-rule="nonzero"/></clipPath><clipPath id="7db0af4308"><rect x="0" width="679" y="0" height="1012"/></clipPath><clipPath id="342e90ba49"><path d="M 0.878906 0 L 679 0 L 679 1012 L 0.878906 1012 Z M 0.878906 0 " clip-rule="nonzero"/></clipPath><clipPath id="9e3ea83ce3"><rect x="0" width="679" y="0" height="1012"/></clipPath><clipPath id="e665c477f8"><rect x="0" width="808" y="0" height="1012"/></clipPath></defs><g transform="matrix(1, 0, 0, 1, 1, 0)"><g clip-path="url(#e665c477f8)"><g clip-path="url(#17f642efd0)"><g transform="matrix(1, 0, 0, 1, 129, 0)"><g clip-path="url(#7db0af4308)"><g fill="#ffffff" fill-opacity="1"><g transform="translate(1.157433, 812.465168)"><g><path d="M 393.78125 13.546875 C 328.75 13.546875 269.890625 0.300781 217.203125 -26.1875 C 164.523438 -52.6875 122.679688 -91.375 91.671875 -142.25 C 60.660156 -193.125 45.15625 -254.988281 45.15625 -327.84375 C 45.15625 -379.019531 54.335938 -424.476562 72.703125 -464.21875 C 91.066406 -503.957031 116.351562 -537.375 148.5625 -564.46875 C 180.78125 -591.5625 218.414062 -612.03125 261.46875 -625.875 C 304.519531 -639.726562 350.726562 -646.65625 400.09375 -646.65625 C 433.8125 -646.65625 468.429688 -643.492188 503.953125 -637.171875 C 539.484375 -630.847656 575.007812 -620.765625 610.53125 -606.921875 L 606.015625 -543.703125 C 565.671875 -573.804688 525.929688 -596.082031 486.796875 -610.53125 C 447.660156 -624.976562 410.632812 -632.203125 375.71875 -632.203125 C 329.957031 -632.203125 288.863281 -620.613281 252.4375 -597.4375 C 216.007812 -574.257812 187.40625 -540.085938 166.625 -494.921875 C 145.851562 -449.765625 135.46875 -394.070312 135.46875 -327.84375 C 135.46875 -258.601562 147.8125 -199.597656 172.5 -150.828125 C 197.1875 -102.054688 230.300781 -64.722656 271.84375 -38.828125 C 313.394531 -12.941406 359.15625 0 409.125 0 C 450.070312 0 491.015625 -10.234375 531.953125 -30.703125 L 531.953125 -331.453125 L 622.28125 -331.453125 L 622.28125 -37.03125 C 542.800781 -3.3125 466.632812 13.546875 393.78125 13.546875 Z M 393.78125 13.546875 "/></g></g></g></g></g></g><g clip-path="url(#342e90ba49)"><g><g clip-path="url(#9e3ea83ce3)"><g fill="#ffffff" fill-opacity="1"><g transform="translate(1.365148, 812.465168)"><g><path d="M 393.78125 13.546875 C 328.75 13.546875 269.890625 0.300781 217.203125 -26.1875 C 164.523438 -52.6875 122.679688 -91.375 91.671875 -142.25 C 60.660156 -193.125 45.15625 -254.988281 45.15625 -327.84375 C 45.15625 -379.019531 54.335938 -424.476562 72.703125 -464.21875 C 91.066406 -503.957031 116.351562 -537.375 148.5625 -564.46875 C 180.78125 -591.5625 218.414062 -612.03125 261.46875 -625.875 C 304.519531 -639.726562 350.726562 -646.65625 400.09375 -646.65625 C 433.8125 -646.65625 468.429688 -643.492188 503.953125 -637.171875 C 539.484375 -630.847656 575.007812 -620.765625 610.53125 -606.921875 L 606.015625 -543.703125 C 565.671875 -573.804688 525.929688 -596.082031 486.796875 -610.53125 C 447.660156 -624.976562 410.632812 -632.203125 375.71875 -632.203125 C 329.957031 -632.203125 288.863281 -620.613281 252.4375 -597.4375 C 216.007812 -574.257812 187.40625 -540.085938 166.625 -494.921875 C 145.851562 -449.765625 135.46875 -394.070312 135.46875 -327.84375 C 135.46875 -258.601562 147.8125 -199.597656 172.5 -150.828125 C 197.1875 -102.054688 230.300781 -64.722656 271.84375 -38.828125 C 313.394531 -12.941406 359.15625 0 409.125 0 C 450.070312 0 491.015625 -10.234375 531.953125 -30.703125 L 531.953125 -331.453125 L 622.28125 -331.453125 L 622.28125 -37.03125 C 542.800781 -3.3125 466.632812 13.546875 393.78125 13.546875 Z M 393.78125 13.546875 "/></g></g></g></g></g></g></g></g></svg>